<?xml version="1.0" standalone="no"?>
<!DOCTYPE svg PUBLIC "-//W3C//DTD SVG 20010904//EN"
 "http://www.w3.org/TR/2001/REC-SVG-20010904/DTD/svg10.dtd">
<svg version="1.0" xmlns="http://www.w3.org/2000/svg"
 width="1300.000000pt" height="1300.000000pt" viewBox="0 0 1300.000000 1300.000000"
 preserveAspectRatio="xMidYMid meet">

<g transform="translate(0.000000,1300.000000) scale(0.100000,-0.100000)"
fill="#000000" stroke="none">
<path d="M4412 10693 c-73 -22 -136 -80 -159 -146 -17 -48 -18 -100 -18 -737
0 -640 1 -688 18 -730 38 -93 111 -144 231 -160 184 -26 326 39 371 169 22 65
23 1362 1 1435 -22 73 -57 118 -117 151 -49 27 -63 30 -164 32 -78 2 -125 -2
-163 -14z"/>
<path d="M5655 10696 c-100 -31 -154 -86 -173 -174 -18 -79 -21 -281 -14 -862
l7 -555 28 -52 c50 -96 128 -135 272 -135 127 -1 198 21 252 78 76 78 74 59
71 836 l-3 684 -30 59 c-34 66 -93 116 -144 120 -17 1 -34 5 -38 9 -11 11
-187 5 -228 -8z"/>
<path d="M6862 10692 c-69 -25 -127 -81 -149 -146 -17 -47 -18 -106 -18 -726
0 -542 3 -684 14 -722 16 -56 69 -122 120 -148 54 -27 155 -43 225 -35 138 16
203 55 245 144 l26 56 0 695 c0 766 2 740 -63 812 -60 66 -100 81 -232 85 -94
3 -125 0 -168 -15z"/>
<path d="M8097 10694 c-66 -21 -130 -86 -153 -156 -15 -47 -18 -119 -21 -643
-5 -631 1 -775 35 -842 47 -92 140 -137 282 -137 114 0 189 23 245 75 80 74
78 59 82 694 5 660 -3 832 -38 895 -32 58 -84 98 -150 115 -69 19 -220 18
-282 -1z"/>
<path d="M8884 9813 l-142 -4 -6 -337 c-7 -364 -15 -425 -64 -515 -48 -90
-148 -160 -269 -192 -32 -9 -101 -15 -158 -15 -256 0 -413 110 -470 327 -12
45 -15 127 -15 390 l0 333 -130 0 -130 0 -2 -82 c-1 -46 -1 -137 0 -203 4
-204 -12 -432 -36 -499 -47 -130 -153 -219 -300 -252 -103 -23 -274 -15 -354
15 -121 47 -204 127 -250 241 -22 53 -23 69 -26 418 l-3 362 -129 0 -129 0 -3
-352 c-4 -335 -5 -356 -26 -412 -74 -197 -220 -287 -466 -287 -224 0 -377 97
-444 283 l-27 73 -3 353 -3 352 -130 0 -129 0 0 -332 c0 -364 -6 -417 -58
-511 -77 -143 -223 -217 -427 -217 -243 0 -405 103 -464 295 -17 53 -20 110
-27 407 l-7 346 -216 4 c-255 5 -471 -6 -554 -27 -199 -51 -370 -219 -445
-440 l-27 -80 -3 -2995 c-3 -3305 -7 -3067 59 -3225 63 -152 200 -287 349
-344 166 -65 34 -61 2312 -61 1965 0 2070 1 2057 18 -7 9 -27 33 -45 52 -51
55 -133 169 -171 237 l-34 63 -1910 0 c-1257 0 -1926 4 -1957 10 -103 23 -176
67 -218 134 -16 25 -32 42 -38 39 -5 -3 -6 -1 -2 5 4 6 -1 37 -9 69 -15 52
-17 272 -22 2281 l-5 2222 448 0 c3288 1 5978 0 5981 -3 2 -2 3 -558 3 -1235
l0 -1230 64 -36 c74 -42 208 -139 272 -198 l44 -41 0 2077 c0 1854 -2 2085
-16 2154 -52 255 -220 447 -463 529 -64 21 -104 27 -251 34 -96 4 -188 7 -205
6 -16 -1 -94 -3 -171 -4z"/>
<path d="M5216 7333 c-3 -4 -6 -224 -6 -490 l0 -483 490 0 490 0 0 490 0 489
-484 0 c-266 0 -487 -3 -490 -6z"/>
<path d="M8010 6849 l0 -489 485 0 485 0 -2 488 -3 487 -482 2 -483 2 0 -490z"/>
<path d="M3820 6845 l0 -485 485 0 485 0 0 485 0 485 -485 0 -485 0 0 -485z"/>
<path d="M6610 6845 l1 -485 489 0 490 0 0 485 0 485 -490 0 -490 0 0 -485z"/>
<path d="M3820 5500 l0 -490 485 0 485 0 0 490 0 490 -485 0 -485 0 0 -490z"/>
<path d="M5210 5500 l0 -490 490 0 490 0 0 490 0 490 -93 0 c-61 0 -98 -4
-106 -12 -11 -10 -13 -10 -7 0 6 9 -74 12 -383 12 l-391 0 0 -490z"/>
<path d="M6610 5500 l0 -490 490 0 490 0 -2 488 -3 487 -487 3 -488 2 0 -490z"/>
<path d="M8000 5635 c0 -195 2 -355 5 -355 3 0 37 16 75 35 96 49 158 73 273
106 166 48 266 62 454 63 l173 1 0 253 0 252 -490 0 -490 0 0 -355z"/>
<path d="M8670 5311 c-503 -54 -944 -351 -1188 -801 -114 -211 -172 -443 -173
-695 -1 -156 8 -238 24 -228 6 4 7 1 1 -8 -11 -18 -8 -44 17 -144 39 -154 91
-281 170 -412 233 -386 624 -649 1068 -719 141 -22 427 -15 552 14 454 107
833 401 1037 807 290 578 176 1277 -283 1741 -220 221 -488 365 -790 424 -120
23 -324 33 -435 21z m366 -386 c273 -52 529 -213 705 -445 69 -89 153 -266
184 -381 81 -309 33 -631 -136 -905 -73 -119 -243 -290 -360 -362 -97 -59
-220 -112 -336 -144 -67 -18 -105 -22 -268 -22 -176 0 -197 2 -290 27 -249 68
-475 219 -625 419 -79 104 -163 277 -197 403 -24 90 -27 117 -27 280 -1 182 3
213 45 352 23 80 86 210 141 293 58 89 227 256 318 315 256 166 551 226 846
170z"/>
<path d="M9620 4214 c-36 -13 -186 -72 -333 -130 l-268 -107 -22 21 c-70 66
-203 82 -295 36 -202 -101 -183 -397 31 -479 59 -22 155 -16 212 13 78 40 132
122 142 214 l5 53 77 28 c172 64 518 201 553 218 41 21 53 46 44 95 -7 34 -38
64 -66 64 -8 -1 -44 -12 -80 -26z"/>
<path d="M3822 4153 l3 -488 485 0 485 0 0 380 c1 209 -1 428 -4 488 l-4 107
-484 0 -483 0 2 -487z"/>
<path d="M5215 4628 c-3 -7 -4 -227 -3 -488 l3 -475 488 -3 487 -2 0 490 0
490 -485 0 c-379 0 -487 -3 -490 -12z"/>
<path d="M6610 4150 l0 -490 261 2 261 3 3 155 c5 259 57 481 165 709 28 57
50 105 50 107 0 2 -166 4 -370 4 l-370 0 0 -490z"/>
</g>
</svg>
