<?xml version="1.0" standalone="no"?>
<!DOCTYPE svg PUBLIC "-//W3C//DTD SVG 20010904//EN"
 "http://www.w3.org/TR/2001/REC-SVG-20010904/DTD/svg10.dtd">
<svg version="1.0" xmlns="http://www.w3.org/2000/svg"
 width="320.000000pt" height="394.000000pt" viewBox="0 0 320.000000 394.000000"
 preserveAspectRatio="xMidYMid meet">

<g transform="translate(0.000000,394.000000) scale(0.100000,-0.100000)"
fill="#000000" stroke="none">
<path d="M1410 3771 c-209 -45 -385 -173 -488 -353 -49 -86 -90 -221 -103
-344 -45 -420 198 -955 538 -1184 110 -74 170 -94 284 -94 93 -1 98 0 182 42
305 151 584 652 603 1082 5 103 3 142 -14 223 -62 299 -283 533 -582 617 -109
31 -306 36 -420 11z m221 -479 c77 -60 213 -129 351 -178 310 -111 345 -156
299 -381 -75 -362 -258 -670 -457 -767 -188 -92 -410 -36 -568 142 -119 134
-212 346 -250 571 -48 285 -1 363 276 457 96 32 197 85 273 143 48 36 46 36
76 13z"/>
<path d="M1060 1994 c-371 -80 -661 -226 -813 -408 -191 -230 -177 -560 35
-791 171 -186 472 -308 919 -372 180 -25 694 -25 864 0 261 39 439 89 600 168
241 118 373 274 412 487 54 290 -132 554 -532 754 -94 47 -289 127 -345 141
-14 4 -46 13 -73 21 l-47 15 -21 -40 c-11 -23 -19 -42 -17 -44 2 -2 65 -24
142 -49 401 -135 670 -333 748 -555 27 -78 27 -204 -1 -293 -77 -242 -375
-408 -851 -473 -160 -22 -542 -30 -715 -16 -592 49 -947 204 -1071 466 -43 90
-59 196 -44 291 41 269 321 481 782 594 67 17 133 30 145 30 28 0 28 1 3 50
-23 44 -25 45 -120 24z"/>
<path d="M1212 1588 l3 -293 63 -130 c77 -159 312 -585 322 -585 9 0 239 365
318 506 29 51 67 123 85 160 l32 69 3 283 3 282 -44 0 -44 0 -7 -152 c-10
-219 -25 -364 -46 -430 -18 -59 -65 -148 -78 -148 -4 0 -26 86 -49 191 l-42
191 39 79 c22 43 40 81 40 84 0 3 -85 5 -190 5 -104 0 -190 -2 -190 -5 0 -3
19 -42 41 -88 l41 -83 -42 -184 c-23 -102 -43 -187 -45 -189 -8 -7 -74 182
-107 304 -18 67 -21 104 -19 233 1 85 -1 162 -4 173 -5 14 -16 19 -46 19 l-40
0 3 -292z"/>
<path d="M2300 1380 l0 -110 -110 0 -110 0 0 -110 0 -110 110 0 110 0 0 -110
0 -110 110 0 110 0 0 110 0 110 110 0 110 0 0 110 0 110 -110 0 -109 0 -3 108
-3 107 -107 3 -108 3 0 -111z"/>
</g>
</svg>
