<?xml version="1.0" standalone="no"?>
<!DOCTYPE svg PUBLIC "-//W3C//DTD SVG 20010904//EN"
 "http://www.w3.org/TR/2001/REC-SVG-20010904/DTD/svg10.dtd">
<svg version="1.0" xmlns="http://www.w3.org/2000/svg"
 width="348.000000pt" height="348.000000pt" viewBox="0 0 348.000000 348.000000"
 preserveAspectRatio="xMidYMid meet">

<g transform="translate(0.000000,348.000000) scale(0.100000,-0.100000)"
fill="#000000" stroke="none">
<path d="M1765 3360 c-403 -43 -780 -251 -1048 -578 l-59 -73 23 -17 c13 -9
52 -43 87 -76 36 -34 66 -56 70 -50 5 5 32 39 60 76 110 141 280 277 451 363
125 62 391 139 420 121 5 -3 41 -62 82 -131 40 -69 75 -125 78 -125 3 0 39 57
80 126 41 69 80 128 86 130 18 7 160 -24 257 -56 383 -128 700 -445 827 -826
27 -82 61 -225 61 -256 0 -7 -59 -47 -130 -88 -71 -41 -129 -77 -130 -80 0 -3
59 -40 131 -84 l131 -78 -7 -47 c-39 -271 -183 -543 -396 -747 -57 -54 -169
-145 -197 -160 -1 0 5 -30 14 -65 11 -41 15 -86 11 -126 l-5 -63 42 25 c389
230 656 605 746 1046 50 243 32 539 -46 777 -127 384 -422 725 -784 907 -258
130 -566 186 -855 155z"/>
<path d="M348 2596 c-20 -7 -58 -29 -85 -49 -74 -54 -218 -207 -239 -252 -27
-61 -25 -244 5 -355 127 -475 539 -1025 1066 -1422 428 -322 887 -478 1101
-373 75 37 237 208 277 293 25 54 29 72 24 117 -10 99 -74 186 -215 292 -102
77 -200 124 -272 130 -82 8 -146 -24 -250 -124 -81 -77 -83 -78 -134 -78 -96
0 -227 82 -444 277 -126 114 -305 304 -387 414 -80 106 -125 194 -132 257 l-5
54 76 84 c95 103 125 152 132 215 8 67 -23 157 -90 259 -144 220 -291 310
-428 261z"/>
<path d="M1449 2347 c-84 -24 -159 -79 -203 -148 l-16 -26 77 -51 77 -51 37
39 c62 64 142 63 179 -3 24 -43 -7 -88 -110 -161 -110 -78 -190 -158 -220
-221 -21 -42 -25 -65 -25 -145 l0 -95 298 -3 297 -2 0 90 0 90 -180 0 c-141 0
-180 3 -180 13 0 19 55 67 143 127 150 99 202 176 202 295 0 79 -19 128 -69
177 -68 69 -208 103 -307 75z"/>
<path d="M2226 2288 c-18 -29 -92 -147 -164 -261 l-132 -208 0 -65 0 -64 190
0 190 0 0 -105 0 -105 105 0 105 0 0 105 0 105 50 0 50 0 0 90 0 90 -50 0 -50
0 0 235 0 235 -130 0 -130 0 -34 -52z m86 -280 l-4 -137 -79 -3 c-43 -2 -79
-1 -79 3 0 3 32 54 71 115 40 60 76 122 81 137 6 15 11 27 12 25 1 -2 0 -65
-2 -140z"/>
</g>
</svg>
